<svg width="350" height="180" viewBox="0 0 350 180" fill="none" xmlns="http://www.w3.org/2000/svg">
<g clip-path="url(#clip0_202_2)">
<path d="M0 75V180H60V67.7123C60 64.622 64.3954 64.0426 65.1963 67.0272C74.3341 101.082 101.207 127.511 135.409 136.08L142.309 137.809C163.771 143.187 186.229 143.187 207.691 137.809L214.591 136.08C248.793 127.511 275.666 101.082 284.804 67.0272C285.605 64.0426 290 64.622 290 67.7123V180H350V75C350 33.5786 316.421 0 275 0H75C33.5786 0 0 33.5786 0 75Z" fill="#EADC25"/>
<path d="M168.939 157.746L172.963 148.919C173.662 147.387 175.838 147.387 176.537 148.919L180.561 157.746C181.715 160.279 181.096 163.268 179.03 165.134C176.599 167.33 172.901 167.33 170.47 165.134C168.404 163.268 167.785 160.279 168.939 157.746Z" fill="#EADC25"/>
<path d="M193.341 156.25L194.898 146.675C195.168 145.013 197.268 144.44 198.345 145.734L204.552 153.189C206.333 155.328 206.523 158.375 205.022 160.719C203.255 163.478 199.687 164.452 196.763 162.974C194.279 161.718 192.894 158.998 193.341 156.25Z" fill="#EADC25"/>
<path d="M155.646 157.25L154.089 147.675C153.819 146.013 151.719 145.44 150.642 146.734L144.435 154.189C142.654 156.328 142.464 159.375 143.965 161.719C145.732 164.478 149.3 165.452 152.224 163.974C154.708 162.718 156.093 159.998 155.646 157.25Z" fill="#EADC25"/>
<path d="M218.824 150.693L218.113 141.019C217.989 139.339 219.898 138.294 221.247 139.302L229.016 145.11C231.246 146.777 232.139 149.696 231.223 152.325C230.146 155.419 226.902 157.196 223.715 156.438C221.007 155.794 219.028 153.469 218.824 150.693Z" fill="#EADC25"/>
<path d="M130.163 151.693L130.874 142.019C130.997 140.339 129.089 139.294 127.74 140.302L119.97 146.11C117.741 147.777 116.848 150.696 117.763 153.325C118.841 156.419 122.085 158.196 125.272 157.438C127.98 156.794 129.959 154.469 130.163 151.693Z" fill="#EADC25"/>
<path d="M242.5 140.043L241.135 130.439C240.899 128.772 242.732 127.6 244.146 128.514L252.291 133.783C254.628 135.295 255.717 138.147 254.981 140.832C254.116 143.992 251 145.984 247.768 145.444C245.023 144.984 242.891 142.799 242.5 140.043Z" fill="#EADC25"/>
<path d="M106.487 141.043L107.852 131.439C108.088 129.772 106.255 128.6 104.841 129.514L96.6961 134.783C94.3588 136.295 93.2703 139.147 94.0058 141.832C94.8713 144.992 97.9874 146.984 101.218 146.444C103.964 145.984 106.096 143.799 106.487 141.043Z" fill="#EADC25"/>
</g>
<defs>
<clipPath id="clip0_202_2">
<rect width="350" height="180" fill="white"/>
</clipPath>
</defs>
</svg>
